<svg width="124" height="124" viewBox="0 0 124 124" fill="none" xmlns="http://www.w3.org/2000/svg">
<rect width="124" height="124" rx="8" fill="#333333"/>
<path d="M8.24486 66.03V63.51L31.3749 51.54V56.895L15.9399 64.77L31.3749 72.645V78L8.24486 66.03ZM36.6451 46.5H43.8901V59.055H55.0051V46.5H62.2501V78H55.0051V64.815H43.8901V78H36.6451V46.5Z" fill="#27BBC1"/>
<path d="M77.6521 78.45C75.1921 78.45 72.9721 77.955 70.9921 76.965C69.0421 75.975 67.4521 74.535 66.2221 72.645L70.4071 68.685C71.3971 69.855 72.5821 70.815 73.9621 71.565C75.3721 72.315 76.6771 72.69 77.8771 72.69C79.1371 72.69 80.1421 72.42 80.8921 71.88C81.6421 71.34 82.0171 70.635 82.0171 69.765C82.0171 69.075 81.8971 68.535 81.6571 68.145C81.4471 67.755 80.9821 67.35 80.2621 66.93C79.5721 66.48 78.3721 65.82 76.6621 64.95C74.3821 63.81 72.5971 62.76 71.3071 61.8C70.0171 60.84 69.0421 59.79 68.3821 58.65C67.7521 57.48 67.4371 56.1 67.4371 54.51C67.4371 52.86 67.8871 51.39 68.7871 50.1C69.6871 48.81 70.9471 47.82 72.5671 47.13C74.2171 46.41 76.1071 46.05 78.2371 46.05C80.6071 46.05 82.6771 46.485 84.4471 47.355C86.2471 48.225 87.5671 49.44 88.4071 51L83.8621 54.42C82.3921 52.68 80.6371 51.81 78.5971 51.81C77.3371 51.81 76.3621 52.05 75.6721 52.53C75.0121 52.98 74.6821 53.625 74.6821 54.465C74.6821 55.005 74.8771 55.5 75.2671 55.95C75.6571 56.4 76.3321 56.91 77.2921 57.48C78.2821 58.02 79.7521 58.74 81.7021 59.64C83.5921 60.51 85.0771 61.395 86.1571 62.295C87.2371 63.165 88.0021 64.17 88.4521 65.31C88.9321 66.42 89.1721 67.77 89.1721 69.36C89.1721 71.19 88.6921 72.795 87.7321 74.175C86.8021 75.525 85.4671 76.575 83.7271 77.325C81.9871 78.075 79.9621 78.45 77.6521 78.45ZM92.6199 72.645L108.055 64.77L92.6199 56.895V51.54L115.75 63.51V66.03L92.6199 78V72.645Z" fill="white"/>
</svg>
